<svg xmlns="http://www.w3.org/2000/svg" viewBox="0 0 32 32" fill="none">
  <rect width="32" height="32" rx="8" fill="#22c55e"/>
  <path d="M16 6C10.477 6 6 10.477 6 16s4.477 10 10 10 10-4.477 10-10S21.523 6 16 6z" fill="none" stroke="white" stroke-width="1.5"/>
  <path d="M12.5 18.5l2-4.5h3l2 4.5" stroke="white" stroke-width="1.8" stroke-linecap="round" stroke-linejoin="round" fill="none"/>
  <path d="M10 20c1.5-2 3.5-3 6-3s4.5 1 6 3" stroke="white" stroke-width="1.5" stroke-linecap="round" fill="none"/>
  <path d="M13 10c0 0 1.5 2 3 2s3-2 3-2" stroke="white" stroke-width="1.5" stroke-linecap="round" fill="none"/>
  <path d="M16 8v2M11 13l1.5 1M21 13l-1.5 1" stroke="white" stroke-width="1.5" stroke-linecap="round"/>
  <!-- Recycling arrows -->
  <path d="M16 9l-1.5 2.5h3L16 9z" fill="white"/>
  <path d="M11.5 19l1.3-2.5-2.2-1.3" stroke="white" stroke-width="1.5" stroke-linecap="round" stroke-linejoin="round" fill="none"/>
  <path d="M20.5 19l-1.3-2.5 2.2-1.3" stroke="white" stroke-width="1.5" stroke-linecap="round" stroke-linejoin="round" fill="none"/>
</svg>
